<?xml version="1.0" standalone="no"?><!DOCTYPE svg PUBLIC "-//W3C//DTD SVG 1.1//EN" "http://www.w3.org/Graphics/SVG/1.1/DTD/svg11.dtd"><svg t="1598597555030" class="icon" viewBox="0 0 1024 1024" version="1.1" xmlns="http://www.w3.org/2000/svg" p-id="1209" width="16" height="16" xmlns:xlink="http://www.w3.org/1999/xlink"><defs><style type="text/css"></style></defs><path d="M622 512a152.63 152.63 0 0 1-1.32 19.34l1.07-8a144.2 144.2 0 0 1-9.55 34.85l3-7.16a142.08 142.08 0 0 1-12.4 23.13c-1.2 1.82-2.45 3.6-3.74 5.36s-4.77 5.37 1.53-1.92c-0.57 0.66-1.09 1.36-1.64 2q-4.34 5.28-9.19 10.13-4.6 4.61-9.63 8.78c-0.38 0.31-2.2 2.11-2.53 2.05 0.34 0.06 6.81-5 2.45-1.91-1.78 1.26-3.53 2.54-5.34 3.76a142.93 142.93 0 0 1-23.68 12.76l7.16-3a144.2 144.2 0 0 1-34.85 9.55l8-1.07a146.46 146.46 0 0 1-38.68 0l8 1.07a144.2 144.2 0 0 1-34.85-9.55l7.16 3a142.08 142.08 0 0 1-23.13-12.4c-1.82-1.2-3.6-2.45-5.36-3.74s-5.37-4.77 1.92 1.53c-0.66-0.57-1.36-1.09-2-1.64q-5.28-4.34-10.13-9.19-4.61-4.6-8.78-9.63c-0.31-0.38-2.11-2.2-2.05-2.53-0.06 0.34 5 6.81 1.91 2.45-1.26-1.78-2.54-3.53-3.76-5.34A142.93 142.93 0 0 1 408.83 551l3 7.16a144.2 144.2 0 0 1-9.55-34.85l1.07 8a146.46 146.46 0 0 1 0-38.68l-1.07 8a144.2 144.2 0 0 1 9.55-34.85l-3 7.16a142.08 142.08 0 0 1 12.4-23.13c1.2-1.82 2.45-3.6 3.74-5.36s4.77-5.37-1.53 1.92c0.57-0.66 1.09-1.36 1.64-2q4.34-5.28 9.19-10.13 4.61-4.61 9.63-8.78c0.38-0.31 2.2-2.11 2.53-2.05-0.34-0.06-6.81 5-2.45 1.91 1.78-1.26 3.53-2.54 5.34-3.76A142.93 142.93 0 0 1 473 408.78l-7.16 3a144.2 144.2 0 0 1 34.85-9.55l-8 1.07a146.46 146.46 0 0 1 38.68 0l-8-1.07a144.2 144.2 0 0 1 34.85 9.55l-7.16-3a142.08 142.08 0 0 1 23.13 12.4c1.82 1.2 3.6 2.45 5.36 3.74s5.37 4.77-1.92-1.53c0.66 0.57 1.36 1.09 2 1.64q5.28 4.34 10.13 9.19 4.61 4.61 8.78 9.63c0.31 0.38 2.11 2.2 2.05 2.53 0.06-0.34-5-6.81-1.91-2.45 1.26 1.78 2.54 3.53 3.76 5.34A142.93 142.93 0 0 1 615.22 473l-3-7.16a144.2 144.2 0 0 1 9.55 34.85l-1.07-8A152.63 152.63 0 0 1 622 512c0.08 15.69 13.74 30.73 30 30s30.08-13.18 30-30c-0.17-34.1-10.34-68.95-30.34-96.77a176.48 176.48 0 0 0-83-63.48c-64.39-23.86-142.4-2.87-186 50.17-23.49 28.57-37.24 62-40.16 98.94-2.69 34 6.17 69.52 23.78 98.63 17 28.16 42.74 52.3 72.82 66 34.34 15.6 71.23 20.18 108.32 12.81 66.08-13.13 121.72-70.1 131.95-136.91A200.65 200.65 0 0 0 682 512c0.08-15.69-13.85-30.72-30-30-16.32 0.73-29.92 13.18-30 30z" fill="#FD9A16" p-id="1210"></path><path d="M930.91 384.45h-111l62.87-62.87L898.4 306a28.51 28.51 0 0 0 0-39.72l-47.55-47.58-75.75-75.76-17.35-17.34a28.51 28.51 0 0 0-39.72 0l-42.74 42.73-35.74 35.74v-111A28.49 28.49 0 0 0 611.46 65H412.54a28.5 28.5 0 0 0-28.09 28.09v111Q353 172.65 321.58 141.2L306 125.6a28.51 28.51 0 0 0-39.72 0l-47.58 47.55-75.76 75.75-17.34 17.35a28.51 28.51 0 0 0 0 39.72l42.73 42.74 35.74 35.74h-111A28.49 28.49 0 0 0 65 412.54v198.92a28.5 28.5 0 0 0 28.09 28.09h111Q172.65 671 141.2 702.42L125.6 718a28.51 28.51 0 0 0 0 39.72l47.55 47.55 75.75 75.76 17.35 17.34a28.51 28.51 0 0 0 39.72 0l42.74-42.73 35.74-35.74v111a28.49 28.49 0 0 0 28.09 28.1h198.92a28.5 28.5 0 0 0 28.09-28.09v-111l62.87 62.87L718 898.4a28.51 28.51 0 0 0 39.72 0l47.55-47.55 75.76-75.75 17.34-17.35a28.51 28.51 0 0 0 0-39.72l-42.73-42.74-35.74-35.74h111a28.49 28.49 0 0 0 28.1-28.09V412.54a28.5 28.5 0 0 0-28.09-28.09zM774.18 583.37h-22.07a29.06 29.06 0 0 0-19.86 8.23c-0.51 0.56-1 1.14-1.46 1.72a25.68 25.68 0 0 0-6.79 18.14 30.11 30.11 0 0 0 0.39 3.7 27.06 27.06 0 0 0 7.83 16.16L775 674.05l63.83 63.84-27.69 27.69-73.24 73.24L715 816l-68.09-68.1-15.6-15.6c-10.4-10.4-29.46-11.18-39.72 0a30.1 30.1 0 0 0-8 21.69 28.71 28.71 0 0 0-0.24 3.62v145.21H440.63V752.11a29.06 29.06 0 0 0-8.23-19.86c-0.56-0.51-1.14-1-1.72-1.46a25.68 25.68 0 0 0-18.14-6.79 30.11 30.11 0 0 0-3.7 0.39 27.06 27.06 0 0 0-16.16 7.83L350 775l-63.84 63.83-27.69-27.69-73.24-73.24 22.82-22.9 68.1-68.09 15.6-15.6a25.77 25.77 0 0 0 2.92-3.51 25.24 25.24 0 0 0 5.3-16.35c0-0.78-0.1-1.54-0.19-2.31a25.76 25.76 0 0 0-8-17.55 30.71 30.71 0 0 0-2.84-2.3 27 27 0 0 0-17-5.93H121.18V440.63h150.71a29.06 29.06 0 0 0 19.86-8.23c0.51-0.56 1-1.14 1.46-1.72a25.68 25.68 0 0 0 6.79-18.14 30.11 30.11 0 0 0-0.39-3.7 27.06 27.06 0 0 0-7.83-16.16L249 350l-63.83-63.84 27.69-27.69 73.24-73.24 22.9 22.82 68.09 68.1 15.6 15.6a25.77 25.77 0 0 0 3.51 2.92 25.24 25.24 0 0 0 16.35 5.3c0.78 0 1.54-0.1 2.31-0.19a25.76 25.76 0 0 0 17.55-8 30.71 30.71 0 0 0 2.3-2.84 27 27 0 0 0 5.93-17V121.18h142.73v150.71a29.06 29.06 0 0 0 8.23 19.86c0.56 0.51 1.14 1 1.72 1.46a25.68 25.68 0 0 0 18.14 6.79 30.11 30.11 0 0 0 3.7-0.39 27.06 27.06 0 0 0 16.16-7.83L674.05 249l63.84-63.83 27.69 27.69 73.24 73.24L816 309l-68.1 68.09-15.6 15.6a25.77 25.77 0 0 0-2.92 3.51 25.24 25.24 0 0 0-5.3 16.35c0 0.78 0.1 1.54 0.19 2.31a25.76 25.76 0 0 0 8 17.55 30.71 30.71 0 0 0 2.84 2.3 27 27 0 0 0 17 5.93h150.71v142.73H774.18z" fill="#0071C3" p-id="1211"></path></svg>